<?xml version="1.0" encoding="utf-8"?>
<!-- Generator: Adobe Illustrator 24.1.2, SVG Export Plug-In . SVG Version: 6.00 Build 0)  -->
<svg version="1.1" id="Bold" xmlns="http://www.w3.org/2000/svg" xmlns:xlink="http://www.w3.org/1999/xlink" x="0px" y="0px"
	 viewBox="0 0 512 512" style="enable-background:new 0 0 512 512;" xml:space="preserve">
<g>
	<path d="M256,0C114.6,0,0,114.6,0,256s114.6,256,256,256s256-114.6,256-256S397.4,0,256,0z M389.8,96.6c1,0.7,1.6,2,2.2,3.1
		c10.9,20.1,9.5,45.2-13.7,61.1c-2.1,1.5-2.8,2.9-2.9,5.3c-0.4,19.5-11.1,33.1-30,37.9c-5,1.3-10.2,1.5-15.4,2
		c-4,0.4-6.5,2.8-6.3,6.1c0.2,3.3,2.7,5.5,6.6,5.3c2.1-0.1,3.2,0.8,4.5,2.2c8.4,9.9,16.8,19.9,25.5,29.7
		c8.2,9.2,16.6,18.1,25.2,27.4c-4.5,3.7-9.7,5.8-15.1,7.4c-12.5,3.6-25.2,2.8-37.8,1.1c-10.6-1.5-20.7-4.5-29.6-10.8
		c-1.7-1.2-2.4-2.6-2.4-4.7c0.1-8.9,0.1-17.8,0.1-26.7c0-6.1-1.4-7.5-7.3-8.5c-14.7-2.4-28.6-6.7-41.1-15.2
		c-14.4-9.7-22.1-23.1-20.3-40.7c1.1-11,3.1-22,5-32.9c1-5.7-1-8.6-6.8-8.6c-6,0-12.1,0-18.1,0c-1.2,0-2.4,0-4,0
		c2.2-3.5,4.4-6.2,5.7-9.2c1.3-3.2,1.6-6.8,2.6-10.1c0.6-2.1,1.5-4.2,2.6-6.1c4.2-7.9,10.1-10.4,18.8-8.4
		c7.8,1.9,12.6,7.4,17.1,13.5c10,13.5,19.9,27.2,29.9,40.7c1,1.3,2,2.6,3.3,4.2c41-21.3,72.5-50.1,87.2-92.9
		c5.4,3,10.7,6.2,15.9,9.6c-0.7,2.8-1.5,5.4-2.7,7.9C386.3,90.8,385.8,93.6,389.8,96.6z M295.2,51.5c8.2,1.4,13.1,6.5,14.9,14.2
		c1.3,5.8,1.7,11.9,2,17.9c0.2,3.3,0.1,6.1,3.9,7.5c1.5,0.6,2.7,2.3,3.8,3.7c4.7,6.2,6.7,13.3,7,21c0.2,3.6-0.6,6.6-3.8,8.7
		c-2.3,1.5-4.1,3.7-6.4,5.2c-8.3,5.9-16.7,11.7-25.2,17.7c-3.6-4.7-6.7-8.7-9.7-12.8c-0.5-0.7-0.6-2.2-0.2-3.1
		c7.7-17.8,10.6-36.7,12.2-55.8C294.4,67.7,294.7,59.7,295.2,51.5z M309.6,45c19.4,3.8,37.9,10.1,55.2,18.4
		c-3.7,11.6-9.2,22.5-16.4,32.8c-3.1,4.5-6.6,8.7-10.4,13.6c-1.6-8.3-3.4-15.9-8.8-21.3c-5-5-5.6-10.7-6.4-17
		c-0.6-5-1.9-10-3.9-14.6C316.7,51.7,313.5,47.8,309.6,45z M91.4,317.9c0.6,0.2,1.1,2.1,1,3.2c-0.3,3.9,0.5,7.5,3,10.4
		c1,1.2,2.5,2.1,4.2,2.7c1-5.5-5.8-9-3-15.1c0.7,0.8,1.6,1.4,1.6,2.1c0.2,4.4,2.9,7.5,5.1,10.9c0.6,1,0.8,2.6,0.6,3.9
		c-0.3,2.2,2.4,6.7,5,7.1c2.8,0.5,5.6,2.4,8.7,0.7c0.5-0.3,2,0.4,2,0.6c0,3.1,2.7,2.3,4.3,3.2c2.1,1.1,4.4,2.3,5.9,4.1
		c2.3,2.9,4.9,4.4,8.6,4.3c0.9,0,1.8,0.2,2.6,0.3c1.9,5.8,1.8,5.7-2.7,9.3c-0.8,0.7-1.3,1.9-1.6,3c-1.6,5.6,0,10.2,4.2,14.2
		c1.5,1.4,2.1,3.7,3.2,5.4c0.5,0.7,1.4,1.2,2.1,1.7c2.3,1.5,4.7,2.7,6.8,4.4c0.7,0.5,0.9,2,0.9,3c0.1,3.9-0.1,7.7,0.1,11.6
		c0.1,1.6,1.2,3.1,1.5,4.7c0.2,1.3,0.2,2.7-0.1,3.9c-0.7,2.8-0.7,5.2,1.5,7.5c1,1.1,1.4,3.1,1.2,4.6c-1.1,8.8,4.3,14.1,10.4,18.8
		c1.3,1,3.9,0.5,5.9,0.5c0.2,0,0.7-2.1,0.6-2.2c-4.2-2.3-4.1-5.7-2.5-9.4c-1.7-0.8-3.1-1.4-4.8-2.1c1.2-1.7,2.1-2.9,3-4.3
		c-1.2-0.9-2.1-1.5-3.5-2.5c3.1-1.1,5.8-1.8,8.2-3.1c1.7-0.9,3-2.5,4.3-4c1.3-1.5,2.3-3.4,3.6-4.9c2.7-2.8,3.9-5.7,2.6-9.7
		c-1-3.1,1-5,4.4-5c5.2,0.1,7.3-1.8,7.7-7.1c0.4-5,0.8-9.8,4.7-13.7c2.3-2.3,1.6-4-1.5-5.4c-0.6-0.3-1.4-0.7-1.5-1.2
		c-1.4-3.8-4.4-3.8-7.7-3.8c-2.3,0-4.6-0.7-6.9-1.1c-3.2-0.6-4.7-2.2-4.7-5.8c0-3.7-2.2-5.5-5.8-5.3c-2.5,0.1-4-0.8-5.1-2.9
		c-0.8-1.4-2-2.7-3.2-3.8c-0.4-0.4-1.7-0.1-2.4,0.2c-2.6,1.4-5.6,1-7.7-1.3c-2.2-2.4-7.5-2.7-9.1,0c-3.2,5.3-7.4,3.1-11.8,2.4
		c-0.3-3.1-0.5-6.1-0.8-9.2c-1.9-0.4-3.7-0.8-5.6-1.3c0.7-2.3,1.3-4.4,2-6.5c-0.3-0.2-0.7-0.4-1-0.6c-1.8,1.2-3.8,2.3-5.5,3.7
		c-2.4,2-5.2,1.8-7.2,0.4c-2.1-1.5-2.1-4.2-1.2-6.8c2.1-6.2,6.9-9.4,13-9.3c2.8,0.1,5.6,0,7.3,0c2.1,2.5,3.5,4.2,5.2,6.2
		c0.6-1.1,0.8-1.3,0.8-1.4c-1.4-5.2,1.6-8,5.5-10.4c2.1-1.3,3.6-2.7,4.8-5.3c1.4-3,4.6-5.2,7.1-7.5c2.3-2.1,4.9-3.8,7.3-5.8
		c1.5-1.2,2.7-3.3,5.2-1.7c0.2,0.1,0.9-0.5,1.6-0.9c-0.5-0.4-0.9-0.6-1.1-0.9c-0.7-0.8-1.3-1.6-1.9-2.4c1.3-0.2,3.3-1,3.8-0.4
		c2.2,2.3,4,1.8,6.2,0.3c0.4-0.3,1.1-0.1,1.7-0.2c0,0.5,0.3,1.3,0,1.6c-3,2.8-0.3,3.2,1.6,3.8c1.3,0.4,2.8,0.6,4.3,1
		c0.9-4.1-3.6-3-4.5-5.6c0.7-0.3,1.4-0.7,2.2-1.1c2.3-1.1,2.1-3,0.9-4.5c-3-4-3.1-3.9-3.9-8c-2.2,0.9-4.3,1.8-6.8,2.8
		c0-2,0-3.4,0-5.1c-1.8-0.5-3.6-1-5.5-1.4c-2.9-0.6-5.1,1-4.9,3.9c0.3,3.6-0.3,6.1-4.5,6.7c-0.9,0.1-1.5,1.7-2.3,2.7
		c-0.8,1-1.7,1.9-2.5,2.9c-0.3-0.2-0.6-0.3-0.9-0.5c-0.1-1.8-0.2-3.5-0.3-5.1c-2.5-1-5-1.6-7.2-2.9c-0.9-0.5-1.1-2.3-1.8-4.1
		c4.6-2.4,9-4.8,13-6.9c1.5,1.3,2.4,2.8,3.4,2.8c1,0,2.1-1.3,3.2-2c-0.2-0.7-0.4-1.4-0.6-2.2c3.5-1.3,6.6-2.9,10-3.7
		c1.6-0.4,3.6,0.6,5.4,1c0,0.4,0,0.9,0.1,1.3c-2.3,1.3-4.5,2.6-7.4,4.1c3.6,0.9,6.6,1.6,10.1,2.4c-0.9-5.7,6.1-1.5,6.5-4.6
		c-1.1-2.4-1.8-3.9-2.6-5.5c-0.2-0.4-0.3-0.8-0.6-1.1c-3.6-3.5-12.6-4.6-17.3-2.8c-3.2,1.2-2.1,3.8-2.6,6.5
		c-1.5-0.7-3.7-1.4-3.7-1.8c0.2-1.7,1.1-3.3,2-5.4c-1.9,0-4.1-0.1-6.3,0.1c-0.6,0-1.4,0.7-1.7,1.3c-0.2,0.3,0.7,1,0.8,1.6
		c0.2,0.9,0.3,2.5,0.1,2.6c-3.4,1.1-6.8,2-10.6,3.1c-0.4-1.7-0.7-2.7-0.8-3.3c3-1.3,5.8-2.6,8.6-3.8c-0.2-0.5-0.4-1.1-0.6-1.6
		c-0.8,0.2-1.8,0.2-2.5,0.7c-3.2,2.3-5.5,2.1-8-1c-1.3-1.7-5.6-2.4-7.7-1.1c-1.6,1-3.1,2.2-4.5,3.3c1.2,2.1,6.1-1.6,4.7,3.3
		c2.1,0.5,4,1,6,1.5c-0.1,0.4-0.2,0.8-0.3,1.2c-2.6,0-4.8,0.5-7.5-1.5c-2.7-2-6.7-2.1-9.8-3c29.2-24.3,88.6-30.5,130.1,7.1
		c-1.3,0.9-2.4,1.8-3.6,2.6c-1.2,0.8-2.8,1.3-3.6,2.3c-0.6,0.7-0.5,2.6,0.1,3.4c0.9,1.3,2.5,2.2,4.2,3.7c0.5-0.1,1.8-0.5,3.4-1
		c0.2,1.6,0.4,3,0.7,4.9c-1.4-0.2-2.5-0.3-3.6-0.4c-3-0.2-5.7,0.1-7.1,3.2c-1,2.2-2.9,3-5.1,3.3c-0.9,0.1-2.2,1-2.3,1.7
		c-0.2,1,0.4,2.3,0.7,3.4c0.2,0.9,0.5,1.9,0.7,2.7c-3,0-5.4-0.1-7.9,0c-2.6,0.1-3.9,1.5-3.8,4.2c0.1,4.4,1.3,6.2,4.5,6.3
		c3.6,0.2,7.5,0.9,9.3-3.9c0.6-1.6,2-3,3.3-4.3c0.5-0.6,1.4-0.9,2.2-1.2c1.7-0.5,3.5-0.9,5.4-1.3c2.6,2,5.7,4.4,9.5,7.3
		c-2,0.5-3.2,0.8-4.4,1.1c-0.1,0.3-0.1,0.5-0.2,0.8c1.2,0.3,2.8,1.3,3.4,0.9c1.4-1.2,2.4-3,3.5-4.6c-3.1-2.9-7.7-3.1-7.4-7.9
		c4.5-0.7,8.8,2.6,9.7,6.9c0.4,2,2,3.8,3.1,5.7c0.3,0,0.7-0.1,1-0.1c0.4-1.3,0.6-2.8,1.2-4c0.5-1.1,1.5-1.9,2.9-3.5
		c0.3,2.1,0.4,3.2,0.7,4.2c0.7,2.3,1.8,4.4,4.6,4.1c3.1-0.4,4.5,0.9,5.1,3.8c0.3,1.5,0.9,3,1.5,5c-4.3,0.1-8.1,1.1-11.9-1.8
		c-1.8-1.4-4.6-1.4-7.2-2.1c-0.3,1.9-0.4,2.9-0.6,4c-4.2-1.3-8.2-2.5-12.5-3.8c-0.1-1.7-0.2-3.4-0.3-6.2c-4.6,0.8-9,1.5-13.5,2.2
		c-2.1,0.3-4.2,0.6-6.3,0.9c-1.7,0.3-3.4,0.7-5.1,1.2c-2.5,0.8-3.4,2.5-3.3,5.2c0.1,1.3-0.9,2.9-1.9,3.8c-2.2,2-4.7,3.6-7.1,5.3
		c-3.2,2.3-3.1,4.1,0.1,5.8c-0.6,3.5-1.3,6.7-1.5,10c-0.1,1.5,0.7,3.3,1.6,4.5c2,2.7,4.3,5.3,6.7,7.6c1.2,1.1,3.1,1.7,4.7,1.8
		c2.4,0.1,4.9-0.4,7.4-0.6c0.3,0,0.8,0.1,1,0c6-5.5,10.9,2.1,16.3,1c0.2,0.6,0.4,0.9,0.4,1c-2,7.2,1.8,12.7,5.2,18.2
		c1.2,2,1.5,3.6,0.1,5.6c-0.6,0.9-1,2-1.6,3c-1.3,2.5-1.1,4.7,0.9,6.8c0.7,0.8,1.5,1.9,1.4,2.8c-0.2,4.4,0.3,8.4,3.6,11.9
		c0.9,1,0.3,3.3,0.6,4.9c0.3,1.2,1,2.2,1.8,3.9c-23.2,31.5-78.5,52.3-129,25.7c-53.8-28.3-67.6-89.8-48.5-133.4
		C87.7,314.8,88.5,316.9,91.4,317.9z M123.5,273.3c0.2-0.7,0.2-1.9,0.6-2c1.6-0.5,3.3-0.7,5-1c0.2,0.3,0.3,0.6,0.5,0.8
		c-0.6,0.8-1.1,2-1.8,2.2C126.5,273.7,125,273.4,123.5,273.3z M132.1,288.5c2.6-0.5,4-0.8,5.5-1c0.3,0.5,0.5,1,0.8,1.4
		c-1,1-1.9,2-2.9,3C134.7,291,133.8,290.1,132.1,288.5z M147.5,298.4c-2.8,0-5.5,0-8.7,0c1.5-3,3.8-3.2,6-2.9c1.1,0.2,2.1,1.3,3.2,2
		C147.8,297.7,147.6,298,147.5,298.4z M149,303.6c0.5,3.8-1.4,4-3.6,3.6c-0.2-0.4-0.4-0.8-0.6-1.2
		C146.1,305.2,147.6,304.4,149,303.6z M144.6,299.9c-1.3,1.8-2.3,3.3-3.4,4.7c-0.3,0.4-1.1,0.5-1.6,0.8c-0.3-0.6-0.8-1.3-0.8-1.9
		C138.9,301,141,299.6,144.6,299.9z M150.9,302.9c0.3-0.4,0.6-0.8,0.9-1.2c1.2,0.7,2.4,1.5,3.7,2.2c-0.7,0.4-1.5,1.2-2,1.1
		C152.6,304.6,151.8,303.6,150.9,302.9z M262.5,280c1.4,1.6,2.9,3.3,4.3,4.8c-1.9,3.6-5.2,4.4-9.6,2.2
		C259.3,285,263.4,284.4,262.5,280z M265,499.3c-49.2,0-94.8-15.5-132.1-41.9c15.8,7.8,33.5,12.2,52.3,12.2
		c65.3,0,118.2-52.9,118.2-118.2s-52.9-118.2-118.2-118.2S66.9,286.1,66.9,351.4c0,19.5,4.7,38,13.1,54.2
		c-27.9-38-44.4-84.9-44.4-135.6C35.7,143.4,138.4,40.7,265,40.7c6.3,0,12.5,0.3,18.6,0.8c-0.3,27.3-1.5,54.3-10.7,80.9
		c-1.1-1.5-1.9-2.6-2.7-3.7c-4.2-5.6-8.2-11.4-12.8-16.6c-6.7-7.5-15.4-11-25.5-11c-9,0-16.2,3.7-20.7,11.3
		c-3.1,5.2-4.8,11.2-7.2,16.8c-1.2,2.8-2.1,5.7-3.6,8.3c-2.2,3.8-4.7,7.3-7.2,10.9c-1.5,2.2-2.5,4.5-1.1,7.1
		c1.4,2.5,3.7,3.1,6.5,3.1c8.5-0.1,16.9,0,25.5,0c-1.1,7.6-2.3,15-3.2,22.4c-2.7,20.9,2.2,39.1,18.8,53.2c8.5,7.2,18.2,12.4,28.7,16
		c6.7,2.3,13.6,3.9,20.8,6c0,0.7,0,1.9,0,3c0,8.3-0.2,16.5,0.1,24.8c0.1,2.1,1.2,4.6,2.6,6c8.8,8.3,19.6,12.8,31.3,15.2
		c16.9,3.4,33.8,4.9,50.6-0.3c5.7-1.7,11.1-4.7,16.2-7.7c2.7-1.6,4.9-4.4,6.7-7.1c2.8-4.2,1.9-6.8-1.4-10.4
		c-16-17.5-31.9-35.1-47.9-52.7c-0.3-0.3-0.5-0.7-0.5-0.7c6-2.8,12.3-5.1,17.8-8.5c13.3-8.3,20.1-20.8,21.8-36.2
		c0.2-1.5,1-3.3,2.2-4.2c26.2-21.2,25.3-52.5,12.5-74.1c-1.3-2.2-1.6-4-0.7-6.4c0.2-0.5,0.3-0.9,0.5-1.4
		c56.5,41.8,93.1,108.8,93.1,184.5C494.3,396.6,391.6,499.3,265,499.3z"/>
</g>
</svg>
