<?xml version="1.0" encoding="utf-8"?>
<!-- Generator: Adobe Illustrator 24.1.2, SVG Export Plug-In . SVG Version: 6.00 Build 0)  -->
<svg version="1.1" id="Capa_1" xmlns="http://www.w3.org/2000/svg" xmlns:xlink="http://www.w3.org/1999/xlink" x="0px" y="0px"
	 viewBox="0 0 512 512" style="enable-background:new 0 0 512 512;" xml:space="preserve">
<style type="text/css">
	.st0{fill:#DAA520;}
</style>
<g>
	<path class="st0" d="M504.8,256.3c-0.9,142.5-121.2,256-262.9,247.3c-32.2-2-63-10-92.3-23.6c-4.6-2.1-10.9-2.8-15.8-1.6
		c-23.6,5.6-47,12.2-70.6,18.1c-29.7,7.5-52.7-15.6-45-45.4c5.8-22.5,12.5-44.9,18.1-67.5c1.2-4.6,0.9-10.7-1.3-14.9
		C-41.5,217,51.6,36.4,220,10.5c136.7-21,266,77.4,282.3,215C503.5,235.7,504,246.1,504.8,256.3z M480,255.2
		C479.9,109.3,340.4,1.9,199.5,39.3C59.3,76.5-9.3,232.7,58.1,361.4c4,7.6,4.8,14.6,2.4,22.8c-6.8,23.3-12.8,46.8-19.1,70.3
		c-4.2,15.7,2.5,22.2,18.4,18c23.8-6.2,47.7-12.1,71.4-18.8c9-2.5,16.5-1.9,24.8,2.4c27.3,14.1,56.6,21.7,87.1,23.5
		C371.7,487.2,480,384.4,480,255.2z"/>
	<path class="st0" d="M86.6,428.7c3.5-13.1,6.1-24.4,9.7-35.4c5.6-17,2.9-32.3-5.4-47.9C32.1,235.7,91.9,102.4,212.5,73.2
		c101.3-24.6,204.3,39.6,227,141.6c22.9,102.9-43.9,205.5-146.7,225.6c-41.7,8.1-81.8,3.2-119.6-15.5c-17.6-8.7-34.4-11-52.9-4.9
		C110,423.3,99.2,425.4,86.6,428.7z M135.9,204.7c0.3,2.3,0.7,6.6,1.4,10.8c4.1,22.7,16.9,40.9,29.8,59.2
		c33.4,47.3,77,79.7,134.3,91.8c10.2,2.2,21.2,2.5,31.6,1.3c24.2-2.9,42.3-23.6,42.5-47.8c0-4.1-2.7-10.2-6.1-12
		c-14.9-8.1-30.5-14.8-45.8-22.2c-6.1-2.9-10.6-1.9-14.6,3.8c-4.7,6.5-10.2,12.3-14.9,18.8c-4.7,6.4-10,7.3-17.3,4.2
		c-27.8-11.5-50.6-29.2-68.3-53.5c-14.1-19.4-14.1-19.5,0.6-38.1c6.2-7.9,8.9-15.6,3.8-25.6c-5.3-10.3-9-21.5-13.4-32.2
		c-6.7-16.1-11.1-19.1-28.2-16c-5.7,1.1-11.7,4.8-16,8.8C142,168.5,136.2,184.5,135.9,204.7z"/>
</g>
</svg>
