<?xml version="1.0" encoding="utf-8"?>
<!-- Generator: Adobe Illustrator 24.1.2, SVG Export Plug-In . SVG Version: 6.00 Build 0)  -->
<svg version="1.1" id="Bold" xmlns="http://www.w3.org/2000/svg" xmlns:xlink="http://www.w3.org/1999/xlink" x="0px" y="0px"
	 viewBox="0 0 512 512" style="enable-background:new 0 0 512 512;" xml:space="preserve">
<style type="text/css">
	.st0{fill:#E1B22D;}
</style>
<g>
	<path class="st0" d="M512,214c0,27.7,0,55.3,0,83c-0.3,3-0.8,5.9-0.8,8.9c-0.4,22.5-2.9,44.8-7.2,67c-5.9,30-26.5,51-56.8,54.2
		c-32.3,3.4-64.8,5.9-97.2,6.4c-93.3,1.3-186.6,3.3-279.8-5.3c-29.8-2.8-52.3-19.2-60-48.1c-4.4-16.5-5.9-33.7-8.1-50.7
		C0.8,318.9,0.7,308.4,0,298c0-27.7,0-55.3,0-83c0.3-2.8,0.8-5.6,0.8-8.3c0.5-22.5,2.7-44.9,7.2-67c5.2-25.7,19.3-44.4,44.7-52.1
		c12.1-3.7,25.2-4.7,38-5.3c38.1-1.9,76.2-4,114.4-4.3c78.8-0.6,157.6-1.6,236.3,5.9c30.5,2.9,52.8,19,60.7,48.6
		c4.3,16.1,5.8,33.1,7.9,49.7C511.2,192.7,511.3,203.4,512,214z M190.2,335.3c54.2-28.1,107.9-56,162.5-84.3
		c-54.6-28.5-108.3-56.5-162.5-84.8C190.2,222.8,190.2,278.6,190.2,335.3z"/>
</g>
</svg>
